<?xml version="1.0" encoding="utf-8"?>
<!-- Generator: Adobe Illustrator 27.2.0, SVG Export Plug-In . SVG Version: 6.00 Build 0)  -->
<svg version="1.1" id="Calque_1" xmlns="http://www.w3.org/2000/svg" xmlns:xlink="http://www.w3.org/1999/xlink" x="0px" y="0px"
	 viewBox="0 0 368.5 368.5" style="enable-background:new 0 0 368.5 368.5;" xml:space="preserve">
<style type="text/css">
	.st0{fill:#1D1D1B;}
</style>
<g id="Calque_1_00000098900341574298619460000005619572125196609164_">
</g>
<g>
	<path class="st0" d="M94,304.9c-0.6-0.6-1.5-1-2.6-1c-1,0-1.8,0.3-2.4,1c-0.7,0.6-1,1.5-1,2.4v16.6H64.5v-16.6c0-1-0.4-1.8-1-2.4
		c-0.7-0.6-1.5-1-2.4-1c-1.1,0-2,0.3-2.6,1c-0.7,0.6-1,1.5-1,2.4v40.3c0,1,0.3,1.8,1,2.4c0.6,0.6,1.5,1,2.6,1c1,0,1.8-0.3,2.4-1
		c0.7-0.6,1.1-1.5,1.1-2.4v-17.1H88v17.1c0,1,0.4,1.8,1,2.4c0.7,0.6,1.5,1,2.4,1c1.1,0,2-0.3,2.6-1c0.6-0.6,1-1.5,1-2.4v-40.3
		C95,306.3,94.6,305.5,94,304.9z"/>
	<path class="st0" d="M137.7,304.7c-0.7-0.7-1.5-1-2.3-1c-1.1,0-2.1,0.6-2.8,1.7l-11.9,17.1l-12.6-17.2c-0.8-1-1.7-1.6-2.8-1.6
		c-0.8,0-1.6,0.3-2.4,1s-1.2,1.5-1.2,2.4c0,0.4,0.1,0.8,0.2,1.2c0.1,0.4,0.4,0.9,0.7,1.4l14.4,19.1v18.8c0,1,0.4,1.8,1,2.4
		c0.7,0.6,1.5,1,2.4,1s1.6-0.3,2.3-1c0.7-0.6,1-1.5,1-2.4v-18.1l14.4-20.3c0.2-0.3,0.4-0.6,0.5-1s0.2-0.7,0.2-1.1
		C138.7,306.2,138.3,305.4,137.7,304.7z"/>
	<path class="st0" d="M180.6,327.1c-0.6-0.6-1.5-1-2.4-1h-11.6c-1,0-1.8,0.3-2.4,1c-0.6,0.6-1,1.5-1,2.4c0,1,0.3,1.8,1,2.4
		c0.6,0.6,1.5,1,2.4,1h7.7v10.3c-1.1,0.5-2.4,0.9-3.9,1.2c-1.7,0.4-3.4,0.6-5,0.6c-3.2,0-6.2-0.8-8.8-2.3c-2.6-1.6-4.6-3.7-6.2-6.3
		c-1.5-2.7-2.3-5.6-2.3-8.9s0.7-6.2,2.3-8.9c1.5-2.6,3.5-4.7,6.2-6.3c2.6-1.6,5.5-2.3,8.8-2.3c1.6,0,3.1,0.2,4.5,0.5
		c1.5,0.4,2.8,0.8,4,1.4c0.3,0.1,0.6,0.2,1,0.4c0.3,0.1,0.6,0.1,1,0.1c0.9,0,1.7-0.4,2.3-1c0.6-0.7,1-1.5,1-2.4
		c0-0.5-0.1-1.1-0.4-1.6c-0.3-0.5-0.7-0.9-1.3-1.2c-1.7-1-3.6-1.7-5.6-2.2c-2.1-0.5-4.2-0.7-6.4-0.7c-3.5,0-6.7,0.6-9.6,1.8
		c-2.9,1.2-5.5,3-7.8,5.2c-2.2,2.2-4,4.8-5.2,7.7c-1.2,2.9-1.9,6.1-1.9,9.5s0.6,6.6,1.9,9.5c1.2,2.9,3,5.5,5.2,7.7s4.8,3.9,7.8,5.2
		c2.9,1.2,6.1,1.8,9.6,1.8c2.7,0,5.2-0.4,7.7-1.1c2.4-0.8,4.7-1.8,6.8-3c0.5-0.3,0.9-0.7,1.2-1.2c0.4-0.5,0.5-1.1,0.5-1.8v-15
		C181.6,328.6,181.2,327.7,180.6,327.1z"/>
	<path class="st0" d="M217,344.6h-19.6v-14.4H214c1,0,1.8-0.3,2.4-0.9c0.6-0.6,1-1.3,1-2.3s-0.3-1.8-1-2.4c-0.6-0.6-1.5-1-2.4-1
		h-16.6v-13.3H217c1,0,1.8-0.3,2.4-0.9c0.6-0.6,1-1.3,1-2.3s-0.3-1.7-1-2.3c-0.6-0.6-1.5-1-2.4-1h-23.2c-1,0-1.8,0.3-2.4,1
		c-0.6,0.6-1,1.5-1,2.4v40.3c0,1,0.3,1.8,1,2.4c0.6,0.6,1.5,1,2.4,1H217c1,0,1.8-0.3,2.4-0.9c0.6-0.6,1-1.4,1-2.3s-0.3-1.6-1-2.3
		C218.9,344.9,218,344.6,217,344.6z"/>
	<path class="st0" d="M271.8,327.5c0,3.4-0.6,6.6-1.7,9.5s-2.7,5.5-4.8,7.7c-2.1,2.2-4.5,3.9-7.2,5.1c-2.8,1.2-5.9,1.8-9.1,1.8
		c-3.3,0-6.4-0.6-9.1-1.8c-2.8-1.2-5.2-2.9-7.2-5.1c-2.1-2.2-3.6-4.8-4.8-7.7s-1.7-6.1-1.7-9.5s0.6-6.6,1.7-9.5
		c1.1-2.9,2.7-5.5,4.8-7.7s4.4-3.9,7.2-5.1s5.8-1.8,9.1-1.8s6.4,0.6,9.1,1.8c2.8,1.2,5.2,2.9,7.2,5.1c2.1,2.2,3.6,4.8,4.8,7.7
		C271.3,320.9,271.8,324.1,271.8,327.5z M264.5,327.5c0-3.3-0.7-6.3-2-9s-3.2-4.8-5.5-6.3c-2.3-1.5-5-2.3-8-2.3s-5.7,0.8-8,2.3
		s-4.1,3.6-5.5,6.2c-1.3,2.6-2,5.6-2,9c0,3.3,0.6,6.3,2,9c1.3,2.7,3.1,4.8,5.5,6.3c2.3,1.5,5,2.3,8,2.3s5.7-0.8,8-2.3
		c2.3-1.5,4.1-3.6,5.5-6.3C263.8,333.8,264.5,330.8,264.5,327.5z"/>
	<path class="st0" d="M294.6,351.7c-3.2,0-6.1-0.4-8.6-1.3s-4.9-2.3-7.2-4.4c-0.5-0.4-0.9-0.9-1.1-1.4s-0.4-1-0.4-1.6
		c0-0.9,0.3-1.6,1-2.3c0.6-0.7,1.4-1,2.3-1c0.7,0,1.4,0.2,2,0.7c1.7,1.6,3.5,2.8,5.4,3.6c1.9,0.8,4,1.2,6.6,1.2c1.8,0,3.4-0.3,5-0.9
		c1.5-0.6,2.7-1.4,3.6-2.3c0.9-1,1.3-2.1,1.3-3.4c0-1.6-0.5-2.9-1.4-4s-2.2-1.9-3.9-2.6s-3.8-1.3-6.2-1.7c-2.2-0.5-4.3-1-6.1-1.7
		c-1.8-0.7-3.3-1.6-4.5-2.7s-2.2-2.4-2.9-3.9c-0.7-1.5-1-3.3-1-5.2c0-2.7,0.7-5.1,2.2-7.1s3.4-3.5,5.9-4.6s5.2-1.6,8.4-1.6
		c2.8,0,5.5,0.4,7.9,1.3c2.5,0.9,4.5,2.1,6,3.5c1.1,1,1.6,2,1.6,3c0,0.9-0.3,1.6-1,2.3c-0.6,0.7-1.4,1-2.3,1c-0.6,0-1.2-0.2-1.6-0.5
		c-0.7-0.8-1.7-1.5-2.9-2.1s-2.5-1.1-3.9-1.5s-2.7-0.6-3.9-0.6c-2,0-3.8,0.3-5.2,0.9c-1.5,0.6-2.6,1.3-3.3,2.3
		c-0.8,1-1.1,2.1-1.1,3.5c0,1.5,0.4,2.8,1.3,3.7s2.1,1.7,3.7,2.3c1.6,0.6,3.4,1.2,5.4,1.7c2.5,0.5,4.7,1.1,6.6,1.8s3.6,1.5,5,2.6
		s2.4,2.4,3.1,3.9c0.7,1.6,1.1,3.5,1.1,5.9c0,2.7-0.8,5-2.3,7.1c-1.5,2-3.5,3.6-6,4.7C300.4,351.1,297.6,351.7,294.6,351.7z"/>
</g>
<path class="st0" d="M175,17.5v34.8c38.8,2.5,69.9,33.8,72.2,72.7h35.4V17.5H175z"/>
<path class="st0" d="M92.7,134.5H58v108.3h107.5v-36.1C126.6,204.4,95.2,173.3,92.7,134.5z"/>
<g>
	<g>
		<path class="st0" d="M192.9,65.6l3.3,5.2c0,0-2.2,3.5-4,2.5c-1.7-1-2.2,1.4-2.2,1.4s-1.3,3.2-3.1,2.1s-2.5-2.4-2.5-2.4
			s3.7,0.9,4-0.1s-5.1-3.4-7.4-3.6c-2.3-0.1-2.3-2.4-7.4,0.9c-5,3.3-4.5,4.9-4.5,4.9s-4,3.1-5.2,3s-1.1,5.5,1.1,5
			c2.2-0.5,3.5-1.7,3.5-1.7s2.1,3.7,2.2,5c0.2,1.3,3-1.1,3-1.1l0.4-2.7c0,0,2.6-0.6,0.2-2.8c-2.4-2.2,1.6-3.6,1.6-3.6
			s0.6-3.4,2.3-2.3c1.8,1.1-1.4,3.3-1.4,3.3s0,2.8,1.4,3.1c1.5,0.3,4.2-0.6,4.2-0.6s3.8,2.1-0.1,2c-3.9,0-2.1,2.7-2.1,2.7
			s-2.1-1.5-2.4-0.4c-0.3,1.1,1.3,4.5-2.2,4c-3.5-0.4-4.2,1-4.2,1l-2.6-0.5c0,0-1.3,0.7-1-0.7c0.3-1.3,0.5-4.2-0.5-3.8
			c-1,0.4-2.2,2.8-0.9,4.7c-1.9,0.4-4.8,1.7-5.6,2.8c-0.8,1-3.3,2.9-3.3,2.9s-0.9,0.7-2.4,0.2c-1.4-0.5-0.3,1.3-0.3,1.3
			s-2.6-0.6-3.1-0.1s0.1,1.2,1.3,1.5c1.2,0.2,2.1,1.4,1.7,2.9c-0.4,1.5-0.7,2.7-1.3,2.8c-0.7,0.1-4.1,0.4-4.8,0.1s-2.4-0.9-2.5,0.5
			s0,2.9,0,2.9s-1.6,1.7-1.1,2.4c0.4,0.7,0.1,2.7,1,2.8c0.9,0.2,2.2,0.5,2.5,1.1s2.2-0.5,2.2-0.5l2.2-0.2c0,0,2.2-1.1,2.5-2.3
			c0.2-1.3-0.5-1.7,0.6-2.6s3.3-1.8,3.3-2.1s0-2.1,1.1-2.1s2.1,0.7,2.1,0.7s1.3-1.3,3.1-1.6c1.8-0.2,2.6,1.4,3,2
			c0.3,0.6,2.5,2.2,3.9,2.7c1.3,0.5,2,2.4,1,3.1c0.2,0.8,1,0,1,0s1-0.8,0.4-1.9s1-0.6,1-0.6s1.3,0.5,0.4-0.4
			c-0.9-0.9-2.5-2.2-3.4-2.3c-0.9-0.1-1.7-1.9-1.7-1.9s-2.3-1.9-0.9-2.6c1.4-0.7,3.8,2.7,3.8,2.7s3.3,1,3.5,2.2
			c0.2,1.3,0,2.5,1.1,3.2s2,1.2,2,1.2s-1.1,0.7-0.6,1.6c0.6,0.9,1.6,1.2,1.6,1.2s0-1.5,0.5-1.8c0.6-0.2,1.4-0.4,0.1-1.6
			c-1.3-1.2-1.9-2.2-1-2.1s1.6-0.7,1.6-0.7s2.1,1.4,2.6,1.1s2.2-1.1,1.6-2.2c-0.6-1.1-0.6-2.4-0.6-2.4s1.1-4.2,2.4-4.1
			c1.3,0.1,2.3,0.8,2.3,0.8s-0.9,1.4,0.6,1.7c1.5,0.2,2.5-0.5,2.5-0.5s-1.8-1.1-0.9-1.7c0.9-0.7,2.5-0.7,2.5-0.7s0.5,1.2-0.7,2.1
			s4.8,3.5,4.8,3.5s1.1,2-0.9,1.9c-2-0.2-4.9-1.2-5.9-1c-1.1,0.2-5,0.8-5.2,1.3s-2.6,2-2.6,2s0.4,5.4,3.3,4.5
			c2.9-0.8,3.5,0.1,3.5,0.1s1.1-0.2,1.8-0.7s1.8-0.7,1.8,0.6c0.1,1.3-1.5,6.4-1.5,6.4s-4-0.1-5.6,0.8s-7.1-2.6-7.1-2.6
			s-3.3,0.4-3.3,1.3s0.4,2.7-1.2,1.7c-1.6-1-3.2-0.4-4.2-2.4c-4.2-0.1-5.8-2.2-5.8-2.2s2.4-3,0.1-3.9c-2.3-0.9-6.8,0.2-6.8,0.2
			s-4,2.4-11.6,1.9s-12.1,17.8-12.1,17.8s-3.1,20.1,9.4,20.9c12.6,0.8,13.1-3.8,17.4,0.5c4.2,4.3,5.8,11.7,5.8,11.7s2.4,7.5-0.4,9.9
			c-2.8,2.4,3.2,14.8,4.8,14c1.5-0.7,9.4-3.1,11.1-8.5c1.6-5.4,6.2-4.6,6.2-4.6s3-0.4,3.8-9.6c0.8-9.2,9.1-10.5,9.1-10.5
			s6.7-5.2,6.1-9.9c0.7-1.8-7.1,1.3-7.1,1.3s-8-21.9-8.5-23.2l0,0l0,0c0.4,0.8,4.2,2.5,5.1,9.4c3.8,3.2,3.7,10.3,3.7,10.3
			s10,0.5,15.4-11c-1.8-3.4-2-5.6-2-5.6s-0.8,3.8-3.7,3.2c-2.9-0.6-4-8.5-4-8.5s-0.2-2,2.6,1.7s4.3,1.8,4.3,1.8s1-0.8,1.9,1.6
			c0.9,2.3,6.6,1.3,6.6,1.3s0.6,6.8,2.8,6s1.1,13.3,0.4,14.6c-0.7,1.3,7.4-8.2,6.9-15.3c-0.4-5.1,1,2.2,1.8,6.7
			c0.7-3.9,1.1-8,1.1-12.1C237.8,100.1,219.1,75.1,192.9,65.6z"/>
		<path class="st0" d="M195,125.3L195,125.3L195,125.3z"/>
		<path class="st0" d="M188.6,69c0,0,2.1,1.9,3.8,0.6c-3.6-0.9-5.7-5-5.7-5c-2.2-0.3-1,1.3-1,1.3L188.6,69z"/>
		<path class="st0" d="M155,89.9c-0.1,1.1-1.7,1.3-1.7,1.3l-0.4,1.4l-0.6,0.7c0,0,1,0.3,1.7,0.3c0.7-0.1-3.2,1.2-1.7,2
			c0,0,0.1-0.6,2.4-0.7s3.8-0.4,3.8-0.4s-0.5-0.9,0.4-1.5s0.3-1.4-0.5-1.3s-0.6-2-0.6-2l-0.9-0.7c0,0,0.3-1-1.1-1.2
			c0.7-0.6,1.3-1.7,1.3-1.7s0.4-0.7-1.4-0.6c0.7-1,0.4-2.6-1-1.2c-1.5,1.4-1.8,3-1.8,3l0.9,2C153.6,89.3,155.2,88.8,155,89.9z"/>
		<path class="st0" d="M149.7,89.9c-1.9,0-1.4,0.5-1.4,0.5s0.9,1.2,0.5,1.4c-0.4,0.2-1,1.1-1,1.1c-0.2,0.8,0.2,0.8,0.2,0.8
			s0.7,0.2,2-0.8c1.9,0.1,1.5-2.1,1.5-2.1s0.8-0.7,0.8-1.9c0-1.2-2.3-0.1-2.3-0.1S151.6,89.9,149.7,89.9z"/>
		<path class="st0" d="M146.2,78.2c0,0,1.8,0.2,4.1-1.1c2.3-1.3,0.5-2.2,0.5-2.2s-2.9-0.4-4.6,0c-1.7,0.4-0.9,2.2-0.9,2.2
			C145.8,78.1,146.2,78.2,146.2,78.2z"/>
		<path class="st0" d="M131.5,76.6c-6,6.6-1.7,6.2-1.7,6.2s3.4-6.4,8.8-7.2c5.4-0.8,5.7-3.3,5.7-3.3s3.7,0.3,6-1.5s6.4-4.3,6.4-4.3
			s3.3-3.7,7.8-3.8c2.2-0.1,3-0.5,3.2-1c-5.3,0.2-10.4,0.9-15.3,2.2C148.9,65.5,136.6,71,131.5,76.6z"/>
		<path class="st0" d="M110.3,101c-0.8-1.3,0.5-3.5,0.5-3.5s1.3-1.5,3.7-2.6c2.4-1.1,4-4,4.1-6.5s4.1-6.1,4.1-6.1
			c-0.6,0-1.2,0.1-1.8,0.3c-6.6,6.9-11.8,15.2-15,24.5C107.5,105.5,110.9,102,110.3,101z"/>
		<path class="st0" d="M114.4,96.1c-1.7,0.4-2.5,2.8-2.5,2.8s0.4,1.1,1.2,1.1s1.5-0.4,1.5-0.4S116.1,95.7,114.4,96.1z"/>
		<path class="st0" d="M166.9,107.2c0,0,0.5-2.5-0.2-1.9c-0.8,0.6-0.8,1.1-0.8,1.1C166.3,107.9,166.9,107.2,166.9,107.2z"/>
		<path class="st0" d="M165.7,109c0,0,0.4,0.1,0.3,0.4c0,0-0.7,1.5,0.1,1.5c0.8-0.1,1.3-1.1,1.3-1.1s0.7-2-1.1-1.9
			S165.7,109,165.7,109z"/>
		<path class="st0" d="M159.5,110c0,0,0.2-0.5-0.5-0.6c0,0-0.9,0.1-0.5,0.6S159.5,110,159.5,110z"/>
		<path class="st0" d="M171.9,113c0.4,0.6,1.1,1.2,1.1,1.2s0.8-0.6,0.6-1s0-0.9,0-0.9s-1-1-3.1-0.1
			C170.6,112.2,171.5,112.5,171.9,113z"/>
		<path class="st0" d="M184.9,116.3c0,0,1.5-1.2,0.3-1s-1.8-0.1-1.8-0.1C182.8,116.3,184.9,116.3,184.9,116.3z"/>
		<path class="st0" d="M193.5,116.7c0.7,0.1,0.9-0.4,0.9-0.4s0.3-0.9-0.3-1.1c-0.7-0.3-1.3,0.8-1.3,0.8
			C192.7,116.5,192.8,116.7,193.5,116.7z"/>
		<path class="st0" d="M145.9,192.7c-1.7,0-11.2-8.4-12.1-9c-0.9-0.6,0-3.6,0-3.6s-4.2-3.9-4.6-9.3c-0.4-5.4-5-6.8-5-7.1
			s-7.9-2.2-8.1-3.3s-4-7.2-6.7-8s-4.7-6.7-4.7-6.7c-0.1,0.3-0.3,0.6-0.4,0.9c5.6,21.6,21.6,39,42.4,46.5
			C146.5,192.9,146.3,192.7,145.9,192.7z"/>
		<path class="st0" d="M198,175.3c-1.8,1-2.7,1-2.7,1.1c-0.1,0.1-0.5,2.5-1.8,3.1s-2.3,2.9-2.3,2.9s-0.1,1.8,2.5,0.5
			c3.9-1.9,7.6-10.7,7.6-10.7S199.8,174.3,198,175.3z"/>
		<path class="st0" d="M228.4,152.3c0,0.7,0.4,1.2,0.4,1.2l0.8-0.8c0,0,0.5-1.7,0.1-2.9C229.7,149.8,228.4,151.6,228.4,152.3z"/>
	</g>
</g>
<path class="st0" d="M292,40.1v94.3h-44.9c-2.8,38.4-33,69.9-72.1,72.4v45.6H77.8v19h16h91h16.5v-0.1c0.4,0,0.7,0,1.1,0
	c60,0,108.6-48.6,108.6-108.5l0,0v-81V54.3V40.1H292z"/>
<path class="st0" d="M79.3,60.7c-1,1.4-2,2.8-3,4.2c-1.4,2.1-2.8,4.3-4.1,6.6c-2.2,3.8-4.1,7.7-5.8,11.7c-1.7,4-3.2,8.2-4.4,12.4
	c-0.2,0.9-0.5,1.7-0.7,2.6c-2.2,8.6-3.4,17.6-3.4,26.8h34.7c2.2-39.5,34-70.5,72.8-72.8V17.5c-20.4,0-39.5,5.7-55.7,15.6
	c-0.7,0.4-1.5,0.9-2.2,1.4c-2.4,1.5-4.6,3.1-6.9,4.8c-2.2,1.7-4.4,3.5-6.5,5.3C92.6,46,91,47.4,89.5,49c-2.4,2.4-4.8,5-6.9,7.6
	C81.4,57.9,80.4,59.3,79.3,60.7z"/>
</svg>
